<?xml version="1.0" encoding="utf-8"?>
<!-- Generator: Adobe Illustrator 16.0.0, SVG Export Plug-In . SVG Version: 6.00 Build 0)  -->
<!DOCTYPE svg PUBLIC "-//W3C//DTD SVG 1.1//EN" "http://www.w3.org/Graphics/SVG/1.1/DTD/svg11.dtd">
<svg version="1.1" id="Layer_1" xmlns="http://www.w3.org/2000/svg" xmlns:xlink="http://www.w3.org/1999/xlink" x="0px" y="0px"
	 width="972px" height="884px" viewBox="0 0 972 884" enable-background="new 0 0 972 884" xml:space="preserve">
<g>
	<g>
		<g>
			<path fill="#FFFFFF" d="M837.54,262.902l-81.083-13.008l44.607,266.844c5.411,24.14,5.557,48.813-18.586,54.225l-271.397,60.798
				l260.583,41.8c24.428,3.916,47.407-12.704,51.325-37.134l51.688-322.202C878.591,289.798,861.963,266.818,837.54,262.902z"/>
			<path fill="#4C386C" d="M778.811,684.956C778.811,684.956,778.813,684.956,778.811,684.956c-2.948,0-5.929-0.238-8.859-0.708
				l-316.232-50.726l326.395-73.119c6.952-1.559,10.602-5.145,12.202-11.991c1.612-6.894,1.001-16.754-1.812-29.305l-0.114-0.584
				l-47.09-281.701l95.956,15.394c30.275,4.855,50.959,33.44,46.107,63.722l-51.688,322.205
				C829.326,665.268,806.251,684.956,778.811,684.956z M568.445,630.002l204.934,32.875c1.799,0.288,3.627,0.433,5.432,0.433
				c16.75,0,30.836-12.025,33.494-28.597l51.688-322.202c2.962-18.496-9.674-35.958-28.164-38.922l-66.213-10.622l42.076,251.698
				c3.521,15.846,4.079,28.497,1.701,38.672c-3.517,15.042-13.389,24.79-28.547,28.188L568.445,630.002z"/>
		</g>
		<g>
			<path fill="#FFFFFF" d="M157.806,529.723l40.772-254.172l-76.99,17.249c-24.142,5.409-39.327,29.363-33.918,53.503l71.338,318.43
				c5.409,24.145,29.363,39.327,53.504,33.921l298.569-66.892l-316.138-50.716C170.516,577.13,153.888,554.153,157.806,529.723z"/>
			<path fill="#4C386C" d="M202.682,710.567c-0.001,0-0.002,0-0.004,0c-25.781,0-48.588-18.282-54.23-43.47L77.108,348.668
				c-3.247-14.497-0.655-29.39,7.298-41.937c7.955-12.547,20.319-21.245,34.816-24.494l92.571-20.739l-43.302,269.938
				c-1.438,8.96,0.7,17.944,6.021,25.294c5.319,7.351,13.184,12.191,22.144,13.629l371.783,59.641l-353.562,79.212
				C210.863,710.112,206.76,710.567,202.682,710.567z M185.363,289.602l-61.408,13.758c-8.855,1.983-16.409,7.297-21.267,14.96
				c-4.859,7.664-6.442,16.761-4.458,25.616l71.339,318.43c3.446,15.386,17.371,26.555,33.11,26.555c0.001,0,0.002,0,0.002,0
				c2.49,0,5.002-0.278,7.465-0.83l243.576-54.57l-260.494-41.79c-14.668-2.352-27.543-10.273-36.252-22.309
				c-8.709-12.036-12.21-26.745-9.857-41.415L185.363,289.602z"/>
		</g>
	</g>
	<g>
		<path fill="#FFFFFF" d="M811.264,595.04c0,24.737-20.061,44.797-44.797,44.797H182.368c-24.739,0-44.794-20.06-44.794-44.797
			V268.72c0-24.742,20.055-44.797,44.794-44.797h584.099c24.736,0,44.797,20.055,44.797,44.797V595.04z"/>
		<path fill="#4C386C" d="M766.467,650.659H182.368c-30.667,0-55.616-24.951-55.616-55.62V268.72
			c0-30.668,24.949-55.619,55.616-55.619h584.099c30.668,0,55.619,24.951,55.619,55.619V595.04
			C822.086,625.708,797.135,650.659,766.467,650.659z M182.368,234.746c-18.732,0-33.972,15.241-33.972,33.974V595.04
			c0,18.733,15.239,33.974,33.972,33.974h584.099c18.733,0,33.974-15.241,33.974-33.974V268.72c0-18.733-15.24-33.974-33.974-33.974
			H182.368z"/>
	</g>
	<g>
		<circle fill="#9983BD" cx="588.822" cy="281.602" r="10.279"/>
	</g>
	<g>
		<circle fill="#9983BD" cx="588.822" cy="317.547" r="10.279"/>
	</g>
	<g>
		<circle fill="#9983BD" cx="588.822" cy="353.492" r="10.279"/>
	</g>
	<g>
		<path fill="#9983BD" d="M599.101,389.44c0,5.676-4.604,10.276-10.278,10.276c-5.676,0-10.279-4.6-10.279-10.276
			c0-5.678,4.604-10.281,10.279-10.281C594.497,379.159,599.101,383.762,599.101,389.44z"/>
	</g>
	<g>
		<g>
			<path fill="#9983BD" d="M767.468,279.16c0,4.328-3.509,7.839-7.84,7.839H615.271c-4.333,0-7.839-3.512-7.839-7.839l0,0
				c0-4.328,3.506-7.84,7.839-7.84h144.357C763.959,271.32,767.468,274.832,767.468,279.16L767.468,279.16z"/>
		</g>
		<g>
			<path fill="#9983BD" d="M767.468,317.544c0,4.331-3.509,7.84-7.84,7.84H615.271c-4.333,0-7.839-3.509-7.839-7.84l0,0
				c0-4.328,3.506-7.837,7.839-7.837h144.357C763.959,309.707,767.468,313.216,767.468,317.544L767.468,317.544z"/>
		</g>
		<g>
			<path fill="#9983BD" d="M767.468,353.489c0,4.333-3.509,7.84-7.84,7.84H615.271c-4.333,0-7.839-3.506-7.839-7.84l0,0
				c0-4.328,3.506-7.837,7.839-7.837h144.357C763.959,345.652,767.468,349.161,767.468,353.489L767.468,353.489z"/>
		</g>
		<g>
			<path fill="#9983BD" d="M767.468,389.438c0,4.331-3.509,7.839-7.84,7.839H615.271c-4.333,0-7.839-3.509-7.839-7.839l0,0
				c0-4.331,3.506-7.837,7.839-7.837h144.357C763.959,381.601,767.468,385.106,767.468,389.438L767.468,389.438z"/>
		</g>
	</g>
	<g>
		<g>
			<path fill="#7C64AC" d="M633.629,588.244c39.489,20.414,88.057,4.957,108.471-34.534l-71.497-36.971L633.629,588.244z"/>
		</g>
		<g>
			<path fill="#9983BD" d="M707.567,445.239l-36.965,71.5l71.497,36.971C762.519,514.223,747.062,465.656,707.567,445.239z"/>
		</g>
		<g>
			<path fill="#9983BD" d="M707.567,445.239c-39.485-20.419-88.053-4.959-108.467,34.529l71.502,36.971L707.567,445.239z"/>
		</g>
		<g>
			<path fill="#4C386C" d="M599.101,479.768c-20.423,39.491-4.962,88.051,34.528,108.476l36.974-71.505L599.101,479.768z"/>
		</g>
	</g>
	<g>
		<path fill="#7C64AC" d="M182.266,565.877c-0.99,0-1.995-0.183-2.972-0.568c-4.171-1.641-6.222-6.354-4.579-10.524l44.295-112.519
			c1.199-3.047,4.111-5.073,7.385-5.142c3.182-0.077,6.268,1.836,7.592,4.833l11.503,26.005l18.698-17.948
			c3.238-3.107,8.376-2.996,11.477,0.234c3.104,3.234,3,8.374-0.234,11.478l-27.057,25.97c-1.91,1.836-4.587,2.624-7.191,2.108
			c-2.598-0.513-4.781-2.259-5.854-4.68l-8.329-18.833l-37.179,94.438C188.562,563.924,185.504,565.877,182.266,565.877z"/>
	</g>
	<g>
		<rect x="174.15" y="279.16" fill="#4C386C" width="16.234" height="285.631"/>
	</g>
	<g>
		<rect x="289.385" y="556.674" fill="#4C386C" width="271.455" height="16.234"/>
	</g>
	<g>
		<rect x="175.551" y="556.674" fill="#4C386C" width="83.115" height="16.234"/>
	</g>
	<g>
		<path fill="#7C64AC" d="M273,469.963c-3.741,0-7.463-1.542-10.137-4.563c-4.951-5.596-4.428-14.145,1.167-19.097l64.104-56.719
			c5.481-4.846,13.817-4.46,18.825,0.869l22.493,23.943l21.001-32.327c1.997-3.074,5.157-5.207,8.758-5.908
			c3.604-0.703,7.328,0.089,10.335,2.189l18.01,12.583l18.042-9.76c6.57-3.549,14.784-1.11,18.335,5.463
			c3.557,6.571,1.11,14.781-5.462,18.336l-25.384,13.731c-4.499,2.435-9.989,2.122-14.185-0.81l-13.383-9.351L382.745,443.6
			c-2.263,3.484-6.003,5.735-10.142,6.104c-4.135,0.382-8.218-1.184-11.062-4.211l-25.312-26.943l-54.269,48.018
			C279.386,468.844,276.186,469.963,273,469.963z"/>
	</g>
	<g>
		<path fill="#7C64AC" d="M460.998,396.657c-2.889,0-5.688-1.547-7.153-4.27c-2.124-3.947-0.648-8.87,3.299-10.996l28.435-15.311
			l23.482-44.486c2.092-3.963,7.004-5.485,10.968-3.389c3.963,2.093,5.482,7.002,3.39,10.967l-24.637,46.673
			c-0.753,1.425-1.912,2.593-3.332,3.358l-30.61,16.482C463.615,396.344,462.297,396.657,460.998,396.657z"/>
	</g>
	<g>
		<path fill="none" d="M281.07,479.145c-0.138,9.042,8.539,19.595,21.854,25.487c13.314,5.882,26.959,5.195,33.56-0.988
			c-9.896-1.522-19.751-4.338-29.332-8.571C297.565,490.834,288.856,485.438,281.07,479.145z"/>
	</g>
	<g>
		<path fill="#4C386C" d="M460.768,435.64c25.965-58.737-0.695-127.65-59.433-153.618c-58.737-25.965-127.647,0.695-153.618,59.433
			c-19.551,44.226-9.256,94.212,22.092,127.301c2.508-5.673,6.904-9.993,12.472-12.886c-26.119-28-34.608-69.991-18.171-107.17
			c21.968-49.701,80.279-72.26,129.98-50.287c49.701,21.97,72.261,80.28,50.29,129.98c-16.44,37.182-53.21,59.166-91.496,58.685
			c1.604,6.072,1.369,12.223-1.136,17.899C397.316,505.895,441.215,479.863,460.768,435.64z"/>
	</g>
	<g>
		<path fill="#4C386C" d="M293.192,465.923c-5.224,1.313-9.256,4.104-11.1,8.271c-0.692,1.569-0.999,3.234-1.022,4.951
			c7.786,6.294,16.495,11.689,26.081,15.928c9.581,4.233,19.437,7.049,29.332,8.571c1.25-1.173,2.277-2.526,2.968-4.09
			c1.844-4.165,1.199-9.026-1.351-13.777c-7.998-1.327-15.954-3.667-23.704-7.097C306.645,475.255,299.555,470.946,293.192,465.923z
			"/>
	</g>
	<g>
		<path fill="#4C386C" d="M302.924,504.632c-13.314-5.892-21.991-16.445-21.854-25.487c-4.004-3.234-7.769-6.706-11.262-10.389
			c-0.003,0.002-0.003,0.005-0.008,0.01c-7.446,16.847,4.714,38.001,27.69,48.158c22.972,10.151,46.803,4.915,54.254-11.933
			c0-0.005,0.003-0.011,0.003-0.016c-5.078-0.101-10.178-0.55-15.265-1.332C329.883,509.827,316.238,510.514,302.924,504.632z"/>
	</g>
	<g>
		<path fill="#4C386C" d="M338.101,485.777c2.55,4.75,3.194,9.612,1.351,13.777c-0.69,1.564-1.718,2.917-2.968,4.09
			c5.087,0.782,10.187,1.231,15.265,1.332c2.505-5.676,2.74-11.827,1.136-17.899C347.964,487.019,343.028,486.591,338.101,485.777z"
			/>
	</g>
	<g>
		<path fill="#4C386C" d="M282.093,474.193c1.844-4.167,5.876-6.958,11.1-8.271c-3.918-3.091-7.56-6.458-10.912-10.054
			c-5.567,2.893-9.964,7.213-12.472,12.886c3.493,3.683,7.258,7.155,11.262,10.389C281.094,477.427,281.4,475.763,282.093,474.193z"
			/>
	</g>
	<g id="XMLID_1_">
		<g>
			<path fill="#4C386C" d="M303.347,581.836l-55.795,126.21c-7.046,15.938-25.745,23.172-41.683,16.125
				s-23.173-25.746-16.126-41.684l55.795-126.21c5.786-13.089,19.433-20.306,32.964-18.559l-5.507,12.456l16.389,7.245l5.507-12.456
				C305.286,553.796,309.135,568.746,303.347,581.836z M242.88,696.455l7.245-16.39l-8.193-3.623l36.677-82.964l8.195,3.623
				l7.245-16.388l-8.195-3.622l1.105-2.5c3.053-6.904-0.08-14.997-6.982-18.052c-6.904-3.052-14.999,0.082-18.051,6.983l-1.104,2.5
				l-8.194-3.623l-7.244,16.39l8.193,3.623l-36.678,82.964l-8.195-3.623l-7.244,16.39l8.194,3.62l-3.523,7.969
				c-3.052,6.904,0.081,15,6.983,18.052c6.904,3.052,14.998-0.082,18.051-6.983l3.522-7.969L242.88,696.455z"/>
			
				<rect x="233.446" y="681.969" transform="matrix(0.4043 -0.9146 0.9146 0.4043 -483.4421 630.6183)" fill="#4C386C" width="17.92" height="8.958"/>
			
				<rect x="277.37" y="582.615" transform="matrix(0.4044 -0.9146 0.9146 0.4044 -366.4084 611.5789)" fill="#4C386C" width="17.918" height="8.96"/>
			<path fill="#9983BD" d="M234.687,692.832l-3.522,7.969c-3.053,6.901-11.146,10.035-18.051,6.983
				c-6.902-3.052-10.035-11.147-6.983-18.052l3.523-7.969L234.687,692.832z"/>
			
				<rect x="216.833" y="665.418" transform="matrix(0.4043 -0.9146 0.9146 0.4043 -486.6201 611.0479)" fill="#4C386C" width="17.92" height="27.371"/>
			
				<rect x="202.399" y="615.742" transform="matrix(0.4043 -0.9146 0.9146 0.4043 -428.1031 601.5289)" fill="#7C64AC" width="90.71" height="27.37"/>
			
				<rect x="260.756" y="566.067" transform="matrix(0.4044 -0.9146 0.9146 0.4044 -369.5877 592.0024)" fill="#4C386C" width="17.917" height="27.369"/>
			<path fill="#4C386C" d="M294.891,544.963l-5.507,12.456l-16.389-7.245l5.507-12.456c2.945,0.37,5.871,1.176,8.719,2.434
				C290.068,541.412,292.633,543.035,294.891,544.963z"/>
			<path fill="#4C386C" d="M307.948,515.423l-13.058,29.541c-2.258-1.929-4.822-3.551-7.67-4.812
				c-2.848-1.258-5.773-2.063-8.719-2.434l13.059-29.541L307.948,515.423z"/>
			
				<rect x="200.22" y="667.281" transform="matrix(0.4044 -0.9146 0.9146 0.4044 -489.7964 591.4401)" fill="#4C386C" width="17.917" height="8.958"/>
			
				<rect x="244.142" y="567.927" transform="matrix(0.4043 -0.9146 0.9146 0.4043 -372.7648 572.4677)" fill="#4C386C" width="17.92" height="8.958"/>
		</g>
	</g>
</g>
<g>
	<path fill="#7C64AC" d="M418.188,185.622c-18.061,0-32.754-14.694-32.754-32.754c0-18.06,14.693-32.753,32.754-32.753
		s32.756,14.694,32.756,32.753C450.943,170.928,436.248,185.622,418.188,185.622z M418.188,136.349
		c-9.109,0-16.52,7.41-16.52,16.519c0,9.109,7.41,16.52,16.52,16.52c9.11,0,16.521-7.41,16.521-16.52
		C434.709,143.759,427.298,136.349,418.188,136.349z"/>
</g>
<g>
	<path fill="#7C64AC" d="M910.152,621.42c-15.795,0-28.647-12.854-28.647-28.653c0-15.792,12.853-28.642,28.647-28.642
		s28.647,12.85,28.647,28.642C938.8,608.565,925.947,621.42,910.152,621.42z M910.152,580.359c-6.844,0-12.413,5.567-12.413,12.408
		c0,6.849,5.569,12.418,12.413,12.418s12.413-5.57,12.413-12.418C922.565,585.926,916.996,580.359,910.152,580.359z"/>
</g>
<g>
	<path fill="#7C64AC" d="M86.576,737.6c-15.799,0-28.65-12.852-28.65-28.647s12.852-28.647,28.65-28.647
		c15.797,0,28.646,12.852,28.646,28.647S102.373,737.6,86.576,737.6z M86.576,696.539c-6.847,0-12.416,5.57-12.416,12.414
		s5.569,12.413,12.416,12.413c6.845,0,12.413-5.57,12.413-12.413S93.421,696.539,86.576,696.539z"/>
</g>
<g>
	<path fill="#7C64AC" d="M44.104,527.118c-4.483,0-8.117-3.633-8.117-8.117v-35.004c0-4.483,3.634-8.117,8.117-8.117
		c4.482,0,8.116,3.634,8.116,8.117V519C52.221,523.484,48.587,527.118,44.104,527.118z"/>
</g>
<g>
	<path fill="#7C64AC" d="M61.606,509.615H26.602c-4.482,0-8.117-3.633-8.117-8.117s3.635-8.117,8.117-8.117h35.005
		c4.482,0,8.117,3.633,8.117,8.117S66.089,509.615,61.606,509.615z"/>
</g>
<g>
	<path fill="#7C64AC" d="M916.113,213.886c-4.484,0-8.117-3.635-8.117-8.117v-28.264c0-4.482,3.633-8.117,8.117-8.117
		s8.117,3.635,8.117,8.117v28.264C924.23,210.251,920.598,213.886,916.113,213.886z"/>
</g>
<g>
	<path fill="#7C64AC" d="M930.244,199.755h-28.262c-4.484,0-8.117-3.634-8.117-8.117c0-4.482,3.633-8.117,8.117-8.117h28.262
		c4.484,0,8.117,3.635,8.117,8.117C938.361,196.121,934.729,199.755,930.244,199.755z"/>
</g>
</svg>
