<?xml version="1.0" encoding="iso-8859-1"?>
<!-- Generator: Adobe Illustrator 19.0.0, SVG Export Plug-In . SVG Version: 6.00 Build 0)  -->
<svg version="1.1" id="Layer_1" xmlns="http://www.w3.org/2000/svg" xmlns:xlink="http://www.w3.org/1999/xlink" x="0px" y="0px"
	 viewBox="0 0 490 490" style="enable-background:new 0 0 490 490;" xml:space="preserve">
<g>
	<g>
		<path id="XMLID_1979_" style="fill:#3C92CA;" d="M212.2,89.35h65.5c1.6,0,2.9,1.3,2.9,2.9v41.4c0,1.6-1.3,2.9-2.9,2.9h-65.5
			c-1.6,0-2.9-1.3-2.9-2.9v-41.4C209.4,90.65,210.7,89.35,212.2,89.35z"/>
		<path d="M475.1,344.35h-20.8v-33.8c0-5-4.1-9.1-9.1-9.1h-91.1v-23.7H375c8.2,0,14.9-6.7,14.9-14.9v-35.6c0-8.2-6.7-14.9-14.9-14.9
			h-20.8v-33.8c0-5-4.1-9.1-9.1-9.1H254v-24h20.8c8.2,0,14.9-6.7,14.9-14.8v-35.6c0-8.2-6.7-14.9-14.9-14.9h-59.7
			c-8.2,0-14.9,6.7-14.9,14.9v35.6c0,8.2,6.7,14.8,14.9,14.8h20.8v24h-91.1c-5,0-9.1,4.1-9.1,9.1v33.8H115
			c-8.2,0-14.9,6.7-14.9,14.9v35.7c0,8.2,6.7,14.9,14.9,14.9h20.8v23.7h-91c-5,0-9.1,4.1-9.1,9.1v33.8H14.9
			c-8.2,0-14.9,6.7-14.9,14.9v35.6c0,8.2,6.7,14.9,14.9,14.9h59.7c8.2,0,14.9-6.7,14.9-14.9v-35.6c0-8.2-6.7-14.9-14.9-14.9H53.8
			v-24.8h82v24.8H115c-8.2,0-14.9,6.7-14.9,14.9v35.6c0,8.2,6.7,14.9,14.9,14.9h59.7c8.2,0,14.9-6.7,14.9-14.9v-35.6
			c0-8.2-6.7-14.9-14.9-14.9h-20.8v-66.6h20.8c8.2,0,14.9-6.7,14.9-14.9v-35.6c0-8.2-6.7-14.9-14.9-14.9h-20.8v-24.8h82v24.8h-20.8
			c-8.2,0-14.9,6.7-14.9,14.9v35.6c0,8.2,6.7,14.9,14.9,14.9h59.7c8.2,0,14.9-6.7,14.9-14.9v-35.6c0-8.2-6.7-14.9-14.9-14.9H254
			v-24.8h82v24.8h-20.8c-8.2,0-14.9,6.7-14.9,14.9v35.6c0,8.2,6.7,14.9,14.9,14.9H336v23.7h-91c-5,0-9.1,4.1-9.1,9.1v33.8h-20.8
			c-8.2,0-14.9,6.7-14.9,14.9v35.6c0,8.2,6.7,14.9,14.9,14.9h59.7c8.2,0,14.9-6.7,14.9-14.9v-35.6c0-8.2-6.7-14.9-14.9-14.9H254
			v-24.8h82v24.8h-20.8c-8.2,0-14.9,6.7-14.9,14.9v35.6c0,8.2,6.7,14.9,14.9,14.9H375c8.2,0,14.9-6.7,14.9-14.9v-35.6
			c0-8.2-6.7-14.9-14.9-14.9h-20.8v-24.8h82v24.8h-20.8c-8.2,0-14.9,6.7-14.9,14.9v35.6c0,8.2,6.7,14.9,14.9,14.9h59.7
			c8.2,0,14.9-6.7,14.9-14.9v-35.6C489.9,351.05,483.3,344.35,475.1,344.35z M218.4,98.35h53.1v29h-53.1V98.35z M71.3,391.55H18.2
			v-29h53.1V391.55z M171.4,391.55h-53.1v-29h53.1V391.55z M171.4,259.65h-53.1v-29h53.1V259.65z M271.6,259.65h-53.1v-29h53.1
			V259.65z M318.6,230.65h53.1v29h-53.1V230.65z M271.6,391.55h-53.1v-29h53.1V391.55z M371.7,391.55h-53.1v-29h53.1V391.55z
			 M471.8,391.55h-53.1v-29h53.1V391.55z"/>
	</g>
</g>
<g>
</g>
<g>
</g>
<g>
</g>
<g>
</g>
<g>
</g>
<g>
</g>
<g>
</g>
<g>
</g>
<g>
</g>
<g>
</g>
<g>
</g>
<g>
</g>
<g>
</g>
<g>
</g>
<g>
</g>
</svg>
