<?xml version="1.0" encoding="utf-8"?>
<!-- Generator: Adobe Illustrator 16.0.0, SVG Export Plug-In . SVG Version: 6.00 Build 0)  -->
<!DOCTYPE svg PUBLIC "-//W3C//DTD SVG 1.1//EN" "http://www.w3.org/Graphics/SVG/1.1/DTD/svg11.dtd">
<svg version="1.1" id="Layer_1" xmlns="http://www.w3.org/2000/svg" xmlns:xlink="http://www.w3.org/1999/xlink" x="0px" y="0px"
	 width="972px" height="884px" viewBox="0 0 972 884" enable-background="new 0 0 972 884" xml:space="preserve">
<g id="XMLID_2_">
	<g>
		<g>
			<polygon fill="#9983BD" points="700.176,236.028 781.266,538.738 715.545,521.125 652.07,284.162 			"/>
		</g>
		<g>
			<polygon fill="#FFFFFF" points="781.266,538.738 559.698,760.305 541.976,694.558 542.084,694.584 715.545,521.125 			"/>
		</g>
		<g>
			<polygon fill="#FFFFFF" points="652.07,284.162 715.545,521.125 642.871,501.644 598.85,337.354 652.042,284.162 			"/>
		</g>
		<g>
			<polygon fill="#FFFFFF" points="715.545,521.125 542.084,694.584 541.976,694.558 522.387,621.856 522.603,621.911 
				642.871,501.644 			"/>
		</g>
		<g>
			<polygon fill="#9983BD" points="700.176,236.028 652.07,284.162 652.042,284.162 415.079,220.659 414.403,221.335 
				396.709,155.696 397.466,154.938 			"/>
		</g>
		<g>
			<polygon fill="#9983BD" points="652.042,284.162 598.85,337.354 434.561,293.333 433.992,293.902 414.403,221.335 
				415.079,220.659 			"/>
		</g>
		<g>
			<polygon fill="#FFFFFF" points="598.85,337.354 642.871,501.644 478.582,457.622 			"/>
		</g>
		<g>
			<polygon fill="#FFFFFF" points="642.871,501.644 522.603,621.911 522.387,621.856 478.203,458.001 478.582,457.622 			"/>
		</g>
		<g>
			<polygon fill="#FFFFFF" points="598.85,337.354 478.582,457.622 478.068,457.487 433.992,293.902 434.561,293.333 			"/>
		</g>
		<g>
			<polygon fill="#9983BD" points="541.976,694.558 559.698,760.305 256.987,679.217 305.122,631.083 			"/>
		</g>
		<g>
			<polygon fill="#FFFFFF" points="522.387,621.856 541.976,694.558 305.122,631.083 358.314,577.889 			"/>
		</g>
		<g>
			<polygon fill="#FFFFFF" points="478.203,458.001 522.387,621.856 358.314,577.889 			"/>
		</g>
		<g>
			<polygon fill="#FFFFFF" points="478.582,457.622 478.203,458.001 478.068,457.487 			"/>
		</g>
		<g>
			<polygon fill="#FFFFFF" points="478.068,457.487 478.203,458.001 358.314,577.889 314.293,413.601 			"/>
		</g>
		<g>
			<polygon fill="#FFFFFF" points="433.992,293.902 478.068,457.487 314.293,413.601 			"/>
		</g>
		<g>
			<polygon fill="#FFFFFF" points="433.992,293.902 314.293,413.601 241.619,394.12 414.403,221.335 			"/>
		</g>
		<g>
			<polygon fill="#9983BD" points="396.709,155.696 414.403,221.335 241.619,394.12 175.898,376.506 			"/>
		</g>
		<g>
			<polygon fill="#9983BD" points="314.293,413.601 358.314,577.889 305.122,631.083 241.619,394.12 			"/>
		</g>
		<g>
			<polygon fill="#9983BD" points="241.619,394.12 305.122,631.083 256.987,679.217 175.898,376.506 			"/>
		</g>
	</g>
	<g>
		<g>
			<path fill="#4C386C" d="M563.742,775.392l-317.8-85.128l-85.132-317.802l232.605-232.614l317.809,85.134l85.132,317.799
				L563.742,775.392z M268.033,668.169l287.621,77.048l210.524-210.522L689.13,247.074L401.51,170.027L190.986,380.55
				L268.033,668.169z"/>
		</g>
		<g>
			<path fill="#4C386C" d="M543.758,700.563l-2.957-0.721L300.704,635.5l-65.121-242.998l177.879-177.88l239.98,64.313l-1.403,5.234
				l5.257-1.409l64.284,239.981L543.758,700.563z M309.539,626.665l230.926,61.884L709.51,519.508l-61.856-230.92l-230.957-61.892
				L247.655,395.736L309.539,626.665z"/>
		</g>
		<g>
			<path fill="#4C386C" d="M524.248,627.92l-3.205-0.822l-167.146-44.792l-45.64-170.323l124.683-124.687l170.328,45.64
				l45.64,170.324L524.248,627.92z M362.732,573.471l158.251,42.406l115.852-115.85l-42.403-158.254l-158.253-42.403
				L320.328,415.218L362.732,573.471z"/>
		</g>
		<g>
			
				<rect x="165.217" y="449.504" transform="matrix(0.9659 0.2589 -0.2589 0.9659 134.7682 -108.285)" fill="#4C386C" width="626.729" height="16.235"/>
		</g>
		<g>
			<polygon fill="#4C386C" points="262.727,684.956 251.249,673.478 694.435,230.29 705.918,241.766 			"/>
		</g>
		<g>
			<polygon fill="#4C386C" points="551.861,762.419 388.646,156.913 404.391,152.963 404.582,153.721 567.535,758.194 			"/>
		</g>
	</g>
</g>
<g>
	<g>
		<circle fill="#9983BD" cx="479.935" cy="460.778" r="93.346"/>
	</g>
	<g>
		<path fill="#4C386C" d="M479.935,564.944c-57.438,0-104.168-46.731-104.168-104.166c0-57.438,46.73-104.168,104.168-104.168
			c57.438,0,104.168,46.731,104.168,104.168C584.103,518.213,537.372,564.944,479.935,564.944z M479.935,378.255
			c-45.503,0-82.523,37.021-82.523,82.523s37.02,82.521,82.523,82.521c45.502,0,82.523-37.018,82.523-82.521
			S525.437,378.255,479.935,378.255z"/>
	</g>
	<g>
		<path fill="#7C64AC" d="M520.52,460.776c0,22.417-18.17,40.585-40.585,40.585c-22.414,0-40.585-18.168-40.585-40.585
			c0-22.412,18.171-40.583,40.585-40.583C502.349,420.193,520.52,438.364,520.52,460.776z"/>
	</g>
	<g>
		<path fill="#4C386C" d="M495.749,460.781c0,8.729-7.081,15.811-15.814,15.811c-8.734,0-15.814-7.082-15.814-15.811
			c0-8.735,7.08-15.817,15.814-15.817C488.667,444.964,495.749,452.046,495.749,460.781z"/>
	</g>
	<g>
		<circle fill="#FFFFFF" cx="541.682" cy="395.422" r="45.933"/>
	</g>
</g>
<g>
	<path fill="#7C64AC" d="M491.59,115.818c-15.798,0-28.65-12.851-28.65-28.647c0-15.797,12.852-28.647,28.65-28.647
		c15.797,0,28.647,12.851,28.647,28.647C520.237,102.967,507.387,115.818,491.59,115.818z M491.59,74.757
		c-6.846,0-12.416,5.569-12.416,12.414s5.57,12.413,12.416,12.413c6.845,0,12.413-5.568,12.413-12.413S498.435,74.757,491.59,74.757
		z"/>
</g>
<g>
	<path fill="#7C64AC" d="M781.266,707.753c-15.798,0-28.649-12.852-28.649-28.647s12.852-28.647,28.649-28.647
		c15.797,0,28.647,12.852,28.647,28.647S797.062,707.753,781.266,707.753z M781.266,666.692c-6.846,0-12.416,5.57-12.416,12.413
		c0,6.844,5.57,12.414,12.416,12.414c6.845,0,12.414-5.57,12.414-12.414C793.68,672.262,788.11,666.692,781.266,666.692z"/>
</g>
<g>
	<path fill="#7C64AC" d="M112.896,582.135c-4.482,0-8.117-3.633-8.117-8.117v-35.004c0-4.484,3.634-8.117,8.117-8.117
		c4.483,0,8.117,3.633,8.117,8.117v35.004C121.013,578.501,117.378,582.135,112.896,582.135z"/>
</g>
<g>
	<path fill="#7C64AC" d="M130.398,564.632H95.394c-4.483,0-8.117-3.633-8.117-8.117s3.634-8.117,8.117-8.117h35.004
		c4.483,0,8.117,3.633,8.117,8.117S134.881,564.632,130.398,564.632z"/>
</g>
<g>
	<path fill="#7C64AC" d="M819.299,382.583c-4.482,0-8.117-3.635-8.117-8.117v-35.007c0-4.482,3.635-8.117,8.117-8.117
		s8.117,3.635,8.117,8.117v35.007C827.416,378.949,823.781,382.583,819.299,382.583z"/>
</g>
<g>
	<path fill="#7C64AC" d="M836.801,365.081h-35.005c-4.482,0-8.116-3.634-8.116-8.117c0-4.482,3.634-8.117,8.116-8.117h35.005
		c4.482,0,8.117,3.634,8.117,8.117C844.918,361.447,841.283,365.081,836.801,365.081z"/>
</g>
<g>
	<path fill="#7C64AC" d="M177.956,231.388c-4.482,0-8.117-3.634-8.117-8.117v-35.007c0-4.482,3.635-8.117,8.117-8.117
		s8.117,3.635,8.117,8.117v35.007C186.073,227.753,182.438,231.388,177.956,231.388z"/>
</g>
<g>
	<path fill="#7C64AC" d="M195.458,213.886h-35.005c-4.482,0-8.117-3.635-8.117-8.117s3.634-8.117,8.117-8.117h35.005
		c4.482,0,8.117,3.635,8.117,8.117S199.941,213.886,195.458,213.886z"/>
</g>
</svg>
