<?xml version="1.0" encoding="utf-8"?>
<!-- Generator: Adobe Illustrator 16.0.0, SVG Export Plug-In . SVG Version: 6.00 Build 0)  -->
<!DOCTYPE svg PUBLIC "-//W3C//DTD SVG 1.1//EN" "http://www.w3.org/Graphics/SVG/1.1/DTD/svg11.dtd">
<svg version="1.1" id="Layer_1" xmlns="http://www.w3.org/2000/svg" xmlns:xlink="http://www.w3.org/1999/xlink" x="0px" y="0px"
	 width="972px" height="884px" viewBox="0 0 972 884" enable-background="new 0 0 972 884" xml:space="preserve">
<g>
	<path fill="#7C64AC" d="M253.373,160.176c-3.761,0-6.807-3.049-6.807-6.809V95.502c0-3.76,3.046-6.807,6.807-6.807h38.199
		c3.76,0,6.806,3.046,6.806,6.807c0,3.76-3.046,6.809-6.806,6.809h-31.391v51.056C260.182,157.127,257.133,160.176,253.373,160.176z
		"/>
</g>
<g>
	<path fill="#7C64AC" d="M291.202,84.164v22.676c6.265,0,11.341-5.076,11.341-11.335C302.543,89.24,297.467,84.164,291.202,84.164z"
		/>
</g>
<g>
	<path fill="#7C64AC" d="M374.803,160.176c3.76,0,6.807-3.049,6.807-6.809V95.502c0-3.76-3.047-6.807-6.807-6.807h-38.199
		c-3.76,0-6.809,3.046-6.809,6.807c0,3.76,3.049,6.809,6.809,6.809h31.391v51.056C367.994,157.127,371.04,160.176,374.803,160.176z"
		/>
</g>
<g>
	<path fill="#7C64AC" d="M336.971,84.164v22.676c-6.262,0-11.34-5.076-11.34-11.335C325.631,89.24,330.709,84.164,336.971,84.164z"
		/>
</g>
<g>
	<path fill="#7C64AC" d="M788.24,342.236H487.664l-43.33-48.742H292.695c-14.956,0-27.081,12.123-27.081,27.078v330.364
		c0,14.955,12.125,27.081,27.081,27.081h444.171v10.648c0,14.308,17.563,25.907,39.225,25.907c21.667,0,39.229-11.6,39.229-25.907
		v-37.729V370.852v-1.538C815.32,354.359,803.195,342.236,788.24,342.236z"/>
</g>
<g>
	<path fill="#4C386C" d="M776.091,724.785c-27.723,0-49.437-15.867-49.437-36.12v-0.439H292.695
		c-20.562,0-37.293-16.728-37.293-37.29V320.572c0-20.562,16.73-37.291,37.293-37.291h156.226l43.328,48.742H788.24
		c20.562,0,37.293,16.731,37.293,37.291v319.352C825.533,708.918,803.813,724.785,776.091,724.785z M292.695,303.704
		c-9.301,0-16.869,7.567-16.869,16.868v330.364c0,9.301,7.568,16.868,16.869,16.868h454.381v20.861
		c0,7.409,12.408,15.695,29.015,15.695s29.018-8.286,29.018-15.695V369.314c0-9.301-7.567-16.866-16.868-16.866H483.077
		l-43.327-48.744H292.695z"/>
</g>
<g>
	<path fill="#7C64AC" d="M726.498,269.394v-46.306H524.22c-14.958,0-27.077,13.579-27.077,30.328v394.27
		c0,16.752,12.119,30.331,27.077,30.331h251.834c14.955,0,27.081-13.579,27.081-30.331V299.725h-49.556
		C738.623,299.725,726.498,286.146,726.498,269.394z"/>
</g>
<g>
	<path fill="#4C386C" d="M776.054,687.093H524.22c-19.936,0-36.156-17.677-36.156-39.407v-394.27
		c0-21.728,16.221-39.404,36.156-39.404h202.278c5.013,0,9.076,4.064,9.076,9.076v46.306c0,11.719,8.078,21.252,18.005,21.252
		h49.556c5.012,0,9.076,4.066,9.076,9.079v347.962C812.211,669.417,795.992,687.093,776.054,687.093z M524.22,232.165
		c-9.927,0-18.001,9.534-18.001,21.252v394.27c0,11.718,8.074,21.252,18.001,21.252h251.834c9.927,0,18.005-9.534,18.005-21.252
		V308.801h-40.479c-19.938,0-36.157-17.677-36.157-39.407v-37.229H524.22z"/>
</g>
<g>
	<path fill="#7C64AC" d="M757.906,269.394v-46.306H555.629c-14.955,0-27.078,13.579-27.078,30.328v394.27
		c0,16.752,12.123,30.331,27.078,30.331h251.836c14.953,0,27.078-13.579,27.078-30.331V299.725h-49.559
		C770.029,299.725,757.906,286.146,757.906,269.394z"/>
</g>
<g>
	<path fill="#4C386C" d="M807.465,687.093H555.629c-19.936,0-36.157-17.677-36.157-39.407v-394.27
		c0-21.728,16.222-39.404,36.157-39.404h202.277c5.013,0,9.076,4.064,9.076,9.076v46.306c0,11.719,8.075,21.252,18.002,21.252
		h49.559c5.012,0,9.076,4.066,9.076,9.079v347.962C843.619,669.417,827.4,687.093,807.465,687.093z M555.629,232.165
		c-9.928,0-18.002,9.534-18.002,21.252v394.27c0,11.718,8.074,21.252,18.002,21.252h251.836c9.924,0,17.999-9.534,17.999-21.252
		V308.801h-40.479c-19.936,0-36.154-17.677-36.154-39.407v-37.229H555.629z"/>
</g>
<g>
	<circle fill="#9983BD" cx="584.922" cy="287.523" r="5.143"/>
</g>
<g>
	<path fill="#9983BD" d="M784.041,286.299c0,2.169-1.757,3.924-3.924,3.924H598.158c-2.169,0-3.926-1.754-3.926-3.924l0,0
		c0-2.164,1.757-3.921,3.926-3.921h181.959C782.284,282.378,784.041,284.135,784.041,286.299L784.041,286.299z"/>
</g>
<g>
	<path fill="#9983BD" d="M590.065,309.464c0,2.841-2.302,5.142-5.145,5.142c-2.838,0-5.142-2.301-5.142-5.142
		c0-2.843,2.304-5.145,5.142-5.145C587.764,304.319,590.065,306.621,590.065,309.464z"/>
</g>
<g>
	<path fill="#9983BD" d="M784.041,308.241c0,2.169-1.757,3.924-3.924,3.924H598.158c-2.169,0-3.926-1.754-3.926-3.924l0,0
		c0-2.167,1.757-3.921,3.926-3.921h181.959C782.284,304.319,784.041,306.074,784.041,308.241L784.041,308.241z"/>
</g>
<g>
	<circle fill="#9983BD" cx="584.922" cy="331.403" r="5.143"/>
</g>
<g>
	<path fill="#9983BD" d="M784.041,330.182c0,2.167-1.757,3.924-3.924,3.924H598.158c-2.169,0-3.926-1.757-3.926-3.924l0,0
		c0-2.167,1.757-3.924,3.926-3.924h181.959C782.284,326.258,784.041,328.015,784.041,330.182L784.041,330.182z"/>
</g>
<g>
	<circle fill="#9983BD" cx="584.922" cy="353.344" r="5.143"/>
</g>
<g>
	<path fill="#9983BD" d="M784.041,352.124c0,2.167-1.757,3.923-3.924,3.923H598.158c-2.169,0-3.926-1.757-3.926-3.923l0,0
		c0-2.167,1.757-3.924,3.926-3.924h181.959C782.284,348.2,784.041,349.957,784.041,352.124L784.041,352.124z"/>
</g>
<g>
	<circle fill="#B6E3EB" cx="584.922" cy="375.285" r="5.143"/>
</g>
<g>
	<path fill="#9983BD" d="M784.041,374.064c0,2.167-1.757,3.924-3.924,3.924H598.158c-2.169,0-3.926-1.757-3.926-3.924l0,0
		c0-2.167,1.757-3.923,3.926-3.923h181.959C782.284,370.141,784.041,371.898,784.041,374.064L784.041,374.064z"/>
</g>
<g>
	<path fill="#FFFFFF" d="M771.992,688.845c0,14.958-12.122,27.081-27.077,27.081H249.369c-14.957,0-27.08-12.123-27.08-27.081
		V358.483c0-14.956,12.123-27.081,27.08-27.081h151.64l43.328,48.744h300.578c14.955,0,27.077,12.123,27.077,27.078V688.845z"/>
</g>
<g>
	<path fill="#4C386C" d="M744.915,726.138H249.369c-20.564,0-37.293-16.728-37.293-37.293V358.483
		c0-20.562,16.729-37.291,37.293-37.291h156.225l43.327,48.742h295.994c20.562,0,37.29,16.729,37.29,37.291v281.62
		C782.205,709.41,765.477,726.138,744.915,726.138z M249.369,341.615c-9.301,0-16.867,7.567-16.867,16.868v330.361
		c0,9.301,7.566,16.871,16.867,16.871h495.546c9.301,0,16.868-7.57,16.868-16.871v-281.62c0-9.301-7.567-16.866-16.868-16.866
		H439.752l-43.327-48.744H249.369z"/>
</g>
<g>
	<path fill="#6A5199" d="M757.906,269.394c0,16.752,12.123,30.331,27.078,30.331h49.559l-76.637-76.636V269.394z"/>
</g>
<g>
	<path fill="#4C386C" d="M834.543,308.801h-49.559c-19.936,0-36.154-17.677-36.154-39.407v-46.306c0-3.67,2.212-6.98,5.604-8.386
		c3.388-1.406,7.296-0.626,9.891,1.968l76.636,76.634c2.595,2.597,3.371,6.502,1.966,9.893
		C841.523,306.589,838.213,308.801,834.543,308.801z M766.982,245.001v24.393c0,11.719,8.075,21.252,18.002,21.252h27.644
		L766.982,245.001z"/>
</g>
<g>
	<path fill="#7C64AC" d="M389.911,523.667c-18.168,0-29.633,8.838-36.291,16.833c-6.65-7.996-18.121-16.833-36.292-16.833
		c-30.936,0-51.714,28.658-51.714,55.418c0,38.96,74.839,91.176,83.374,97c1.395,0.954,3.015,1.43,4.632,1.43
		c1.622,0,3.239-0.476,4.637-1.43c8.534-5.824,83.372-58.04,83.372-97C441.629,552.325,420.847,523.667,389.911,523.667z"/>
</g>
<g>
	<path fill="#7C64AC" d="M391.508,600.588c0,20.924-16.964,37.887-37.888,37.887c-20.922,0-37.885-16.963-37.885-37.887
		c0-20.921,16.963-37.885,37.885-37.885C374.544,562.704,391.508,579.667,391.508,600.588z"/>
</g>
<g>
	<path fill="#4C386C" d="M353.62,647.552c-25.895,0-46.961-21.067-46.961-46.963c0-25.894,21.066-46.961,46.961-46.961
		c25.894,0,46.964,21.067,46.964,46.961C400.584,626.485,379.514,647.552,353.62,647.552z M353.62,571.78
		c-15.883,0-28.809,12.926-28.809,28.809c0,15.885,12.926,28.811,28.809,28.811c15.885,0,28.809-12.926,28.809-28.811
		C382.429,584.706,369.505,571.78,353.62,571.78z"/>
</g>
<g>
	<circle fill="#4C386C" cx="353.62" cy="599.817" r="17.011"/>
</g>
<g>
	<path fill="#4C386C" d="M650.137,611.937h-264.41v-22.694h264.41c23.609,0,42.812-19.204,42.812-42.81v-31.015
		c0-23.606-19.203-42.81-42.812-42.81h-264.41v-22.692h264.41c36.12,0,65.504,29.382,65.504,65.501v31.015
		C715.641,582.552,686.257,611.937,650.137,611.937z"/>
</g>
<g>
	<path fill="#4C386C" d="M401.236,472.291h-31.018c-36.12,0-65.504-29.384-65.504-65.504V259.013h22.691v147.774
		c0,23.606,19.204,42.812,42.812,42.812h31.018V472.291z"/>
</g>
<g>
	<path fill="#4C386C" d="M311.619,272.628c-1.995,0-20.011-0.428-37.843-15.301c-22.573-18.821-34.02-50.935-34.02-95.449
		c0-7.52,6.096-13.616,13.616-13.616c7.52,0,13.615,6.096,13.615,13.616c0,81.184,43,83.464,44.834,83.522
		c7.52,0,13.512,6.093,13.512,13.613S319.136,272.628,311.619,272.628z"/>
</g>
<g>
	<path fill="#4C386C" d="M316.061,272.628c-7.521,0-13.616-6.096-13.616-13.616c0-7.462,6.001-13.521,13.441-13.613
		c2.196-0.079,44.805-2.711,44.805-83.522c0-7.52,6.096-13.616,13.616-13.616c7.517,0,13.615,6.096,13.615,13.616
		c0,44.514-11.446,76.628-34.02,95.449C336.07,272.2,318.055,272.628,316.061,272.628z"/>
</g>
<g>
	<path fill="#7C64AC" d="M153.688,790.807c-15.795,0-28.646-12.854-28.646-28.653c0-15.792,12.852-28.642,28.646-28.642
		c15.796,0,28.648,12.85,28.648,28.642C182.336,777.953,169.483,790.807,153.688,790.807z M153.688,749.747
		c-6.843,0-12.413,5.567-12.413,12.408c0,6.849,5.57,12.419,12.413,12.419c6.844,0,12.414-5.57,12.414-12.419
		C166.102,755.313,160.531,749.747,153.688,749.747z"/>
</g>
<g>
	<path fill="#7C64AC" d="M153.688,332.967c-15.795,0-28.646-12.853-28.646-28.652c0-15.793,12.852-28.642,28.646-28.642
		c15.796,0,28.648,12.849,28.648,28.642C182.336,320.114,169.483,332.967,153.688,332.967z M153.688,291.906
		c-6.843,0-12.413,5.566-12.413,12.408c0,6.847,5.57,12.418,12.413,12.418c6.844,0,12.414-5.571,12.414-12.418
		C166.102,297.472,160.531,291.906,153.688,291.906z"/>
</g>
<g>
	<path fill="#7C64AC" d="M843.619,234.416c-15.795,0-28.647-12.854-28.647-28.653c0-15.792,12.853-28.642,28.647-28.642
		s28.647,12.85,28.647,28.642C872.267,221.562,859.414,234.416,843.619,234.416z M843.619,193.355
		c-6.844,0-12.414,5.566-12.414,12.408c0,6.848,5.57,12.419,12.414,12.419s12.413-5.571,12.413-12.419
		C856.032,198.921,850.463,193.355,843.619,193.355z"/>
</g>
<g>
	<path fill="#7C64AC" d="M870.691,784.408c-4.484,0-8.117-3.633-8.117-8.117v-28.262c0-4.484,3.633-8.117,8.117-8.117
		s8.117,3.633,8.117,8.117v28.262C878.809,780.774,875.176,784.408,870.691,784.408z"/>
</g>
<g>
	<path fill="#7C64AC" d="M884.822,770.279h-28.262c-4.483,0-8.117-3.633-8.117-8.117s3.634-8.117,8.117-8.117h28.262
		c4.484,0,8.117,3.633,8.117,8.117S889.307,770.279,884.822,770.279z"/>
</g>
<g>
	<path fill="#7C64AC" d="M511.273,160.813c-4.484,0-8.117-3.634-8.117-8.117v-28.262c0-4.482,3.633-8.117,8.117-8.117
		c4.483,0,8.117,3.635,8.117,8.117v28.262C519.391,157.179,515.757,160.813,511.273,160.813z"/>
</g>
<g>
	<path fill="#7C64AC" d="M525.404,146.685h-28.262c-4.484,0-8.117-3.634-8.117-8.117c0-4.482,3.633-8.117,8.117-8.117h28.262
		c4.483,0,8.116,3.634,8.116,8.117C533.521,143.051,529.888,146.685,525.404,146.685z"/>
</g>
</svg>
