<?xml version="1.0" encoding="iso-8859-1"?>
<!-- Generator: Adobe Illustrator 19.0.0, SVG Export Plug-In . SVG Version: 6.00 Build 0)  -->
<svg version="1.1" id="Layer_1" xmlns="http://www.w3.org/2000/svg" xmlns:xlink="http://www.w3.org/1999/xlink" x="0px" y="0px"
	 viewBox="0 0 512 512" style="enable-background:new 0 0 512 512;" xml:space="preserve">
<path style="fill:#D2DCF0;" d="M485.517,61.793H26.483C11.857,61.793,0,73.65,0,88.276v335.448
	c0,14.626,11.857,26.483,26.483,26.483h459.034c14.626,0,26.483-11.857,26.483-26.483V88.276
	C512,73.65,500.143,61.793,485.517,61.793z M441.379,79.448h8.828c4.875,0,8.828,3.953,8.828,8.828c0,4.875-3.953,8.828-8.828,8.828
	h-8.828c-4.875,0-8.828-3.953-8.828-8.828C432.552,83.401,436.504,79.448,441.379,79.448z M194.207,79.448h211.862
	c4.875,0,8.828,3.953,8.828,8.828c0,4.875-3.953,8.828-8.828,8.828H194.207c-4.875,0-8.828-3.953-8.828-8.828
	C185.379,83.401,189.332,79.448,194.207,79.448z M150.069,79.448h8.828c4.875,0,8.828,3.953,8.828,8.828
	c0,4.875-3.953,8.828-8.828,8.828h-8.828c-4.875,0-8.828-3.953-8.828-8.828C141.241,83.401,145.194,79.448,150.069,79.448z
	 M114.759,79.448h8.828c4.875,0,8.828,3.953,8.828,8.828c0,4.875-3.953,8.828-8.828,8.828h-8.828c-4.875,0-8.828-3.953-8.828-8.828
	C105.931,83.401,109.884,79.448,114.759,79.448z M79.448,79.448c4.875,0,8.828,3.953,8.828,8.828c0,4.875-3.953,8.828-8.828,8.828
	c-4.875,0-8.828-3.953-8.828-8.828C70.621,83.401,74.573,79.448,79.448,79.448z M52.966,79.448c4.875,0,8.828,3.953,8.828,8.828
	c0,4.875-3.953,8.828-8.828,8.828s-8.828-3.953-8.828-8.828C44.138,83.401,48.09,79.448,52.966,79.448z M26.483,79.448
	c4.875,0,8.828,3.953,8.828,8.828c0,4.875-3.953,8.828-8.828,8.828s-8.828-3.953-8.828-8.828
	C17.655,83.401,21.608,79.448,26.483,79.448z M494.345,167.724v256c0,4.875-3.953,8.828-8.828,8.828H26.483
	c-4.875,0-8.828-3.953-8.828-8.828v-256v-44.138c0-4.875,3.953-8.828,8.828-8.828h459.034c4.875,0,8.828,3.953,8.828,8.828V167.724z
	 M485.517,97.103h-8.828c-4.875,0-8.828-3.953-8.828-8.828c0-4.875,3.953-8.828,8.828-8.828h8.828c4.875,0,8.828,3.953,8.828,8.828
	C494.345,93.151,490.392,97.103,485.517,97.103z"/>
<path style="fill:#FFFFFF;" d="M17.655,423.724c0,4.875,3.953,8.828,8.828,8.828h459.034c4.875,0,8.828-3.953,8.828-8.828v-256
	H17.655V423.724z M379.586,211.862v-8.828c0-4.875,3.953-8.828,8.828-8.828h70.621c4.875,0,8.828,3.953,8.828,8.828v8.828v70.621
	c0,4.875-3.953,8.828-8.828,8.828h-70.621c-4.875,0-8.828-3.953-8.828-8.828V211.862z M264.828,211.862v-8.828
	c0-4.875,3.953-8.828,8.828-8.828h70.621c4.875,0,8.828,3.953,8.828,8.828v8.828v70.621c0,4.875-3.953,8.828-8.828,8.828h-70.621
	c-4.875,0-8.828-3.953-8.828-8.828V211.862z M264.828,326.621c0-4.875,3.953-8.828,8.828-8.828h8.828h176.552
	c4.875,0,8.828,3.953,8.828,8.828v70.621c0,4.875-3.953,8.828-8.828,8.828H282.483h-8.828c-4.875,0-8.828-3.953-8.828-8.828V326.621
	z M44.138,203.034c0-4.875,3.953-8.828,8.828-8.828h176.552c4.875,0,8.828,3.953,8.828,8.828v194.207
	c0,4.875-3.953,8.828-8.828,8.828h-10.243H63.192H52.966c-4.875,0-8.828-3.953-8.828-8.828V203.034z"/>
<circle style="fill:#FF6469;" cx="26.483" cy="88.276" r="8.828"/>
<circle style="fill:#FFE169;" cx="52.966" cy="88.276" r="8.828"/>
<circle style="fill:#87E1AA;" cx="79.448" cy="88.276" r="8.828"/>
<g>
	<path style="fill:#E4EAF6;" d="M114.759,97.103h8.828c4.875,0,8.828-3.953,8.828-8.828c0-4.875-3.953-8.828-8.828-8.828h-8.828
		c-4.875,0-8.828,3.953-8.828,8.828C105.931,93.151,109.884,97.103,114.759,97.103z"/>
	<path style="fill:#E4EAF6;" d="M150.069,97.103h8.828c4.875,0,8.828-3.953,8.828-8.828c0-4.875-3.953-8.828-8.828-8.828h-8.828
		c-4.875,0-8.828,3.953-8.828,8.828C141.241,93.151,145.194,97.103,150.069,97.103z"/>
	<path style="fill:#E4EAF6;" d="M441.379,97.103h8.828c4.875,0,8.828-3.953,8.828-8.828c0-4.875-3.953-8.828-8.828-8.828h-8.828
		c-4.875,0-8.828,3.953-8.828,8.828C432.552,93.151,436.504,97.103,441.379,97.103z"/>
	<path style="fill:#E4EAF6;" d="M485.517,79.448h-8.828c-4.875,0-8.828,3.953-8.828,8.828c0,4.875,3.953,8.828,8.828,8.828h8.828
		c4.875,0,8.828-3.953,8.828-8.828C494.345,83.401,490.392,79.448,485.517,79.448z"/>
	<path style="fill:#E4EAF6;" d="M194.207,97.103h211.862c4.875,0,8.828-3.953,8.828-8.828c0-4.875-3.953-8.828-8.828-8.828H194.207
		c-4.875,0-8.828,3.953-8.828,8.828C185.379,93.151,189.332,97.103,194.207,97.103z"/>
</g>
<path style="fill:#FF6469;" d="M485.517,114.759H26.483c-4.875,0-8.828,3.953-8.828,8.828v44.138h476.69v-44.138
	C494.345,118.711,490.392,114.759,485.517,114.759z M114.759,150.069H44.138c-4.875,0-8.828-3.953-8.828-8.828
	s3.953-8.828,8.828-8.828h70.621c4.875,0,8.828,3.953,8.828,8.828S119.634,150.069,114.759,150.069z M185.379,150.069h-35.31
	c-4.875,0-8.828-3.953-8.828-8.828s3.953-8.828,8.828-8.828h35.31c4.875,0,8.828,3.953,8.828,8.828S190.254,150.069,185.379,150.069
	z M256,150.069h-35.31c-4.875,0-8.828-3.953-8.828-8.828s3.953-8.828,8.828-8.828H256c4.875,0,8.828,3.953,8.828,8.828
	S260.875,150.069,256,150.069z M326.621,150.069h-35.31c-4.875,0-8.828-3.953-8.828-8.828s3.953-8.828,8.828-8.828h35.31
	c4.875,0,8.828,3.953,8.828,8.828S331.496,150.069,326.621,150.069z M397.241,150.069h-35.31c-4.875,0-8.828-3.953-8.828-8.828
	s3.953-8.828,8.828-8.828h35.31c4.875,0,8.828,3.953,8.828,8.828S402.116,150.069,397.241,150.069z M467.862,150.069h-35.31
	c-4.875,0-8.828-3.953-8.828-8.828s3.953-8.828,8.828-8.828h35.31c4.875,0,8.828,3.953,8.828,8.828S472.737,150.069,467.862,150.069
	z"/>
<path style="fill:#FFDC69;" d="M114.759,132.414H44.138c-4.875,0-8.828,3.953-8.828,8.828s3.953,8.828,8.828,8.828h70.621
	c4.875,0,8.828-3.953,8.828-8.828S119.634,132.414,114.759,132.414z"/>
<g>
	<path style="fill:#D2555F;" d="M185.379,132.414h-35.31c-4.875,0-8.828,3.953-8.828,8.828s3.953,8.828,8.828,8.828h35.31
		c4.875,0,8.828-3.953,8.828-8.828S190.254,132.414,185.379,132.414z"/>
	<path style="fill:#D2555F;" d="M256,132.414h-35.31c-4.875,0-8.828,3.953-8.828,8.828s3.953,8.828,8.828,8.828H256
		c4.875,0,8.828-3.953,8.828-8.828S260.875,132.414,256,132.414z"/>
	<path style="fill:#D2555F;" d="M326.621,132.414h-35.31c-4.875,0-8.828,3.953-8.828,8.828s3.953,8.828,8.828,8.828h35.31
		c4.875,0,8.828-3.953,8.828-8.828S331.496,132.414,326.621,132.414z"/>
	<path style="fill:#D2555F;" d="M397.241,132.414h-35.31c-4.875,0-8.828,3.953-8.828,8.828s3.953,8.828,8.828,8.828h35.31
		c4.875,0,8.828-3.953,8.828-8.828S402.116,132.414,397.241,132.414z"/>
	<path style="fill:#D2555F;" d="M467.862,132.414h-35.31c-4.875,0-8.828,3.953-8.828,8.828s3.953,8.828,8.828,8.828h35.31
		c4.875,0,8.828-3.953,8.828-8.828S472.737,132.414,467.862,132.414z"/>
</g>
<g>
	<path style="fill:#DEE3ED;" d="M273.655,291.31h70.621c4.875,0,8.828-3.953,8.828-8.828v-70.621c0,4.875-3.953,8.828-8.828,8.828
		h-70.621c-4.875,0-8.828-3.953-8.828-8.828v70.621C264.828,287.358,268.78,291.31,273.655,291.31z"/>
	<path style="fill:#DEE3ED;" d="M388.414,291.31h70.621c4.875,0,8.828-3.953,8.828-8.828v-70.621c0,4.875-3.953,8.828-8.828,8.828
		h-70.621c-4.875,0-8.828-3.953-8.828-8.828v70.621C379.586,287.358,383.539,291.31,388.414,291.31z"/>
</g>
<path style="fill:#FF969B;" d="M273.655,220.69h70.621c4.875,0,8.828-3.953,8.828-8.828v-8.828c0-4.875-3.953-8.828-8.828-8.828
	h-70.621c-4.875,0-8.828,3.953-8.828,8.828v8.828C264.828,216.737,268.78,220.69,273.655,220.69z"/>
<path style="fill:#A0DCF0;" d="M388.414,220.69h70.621c4.875,0,8.828-3.953,8.828-8.828v-8.828c0-4.875-3.953-8.828-8.828-8.828
	h-70.621c-4.875,0-8.828,3.953-8.828,8.828v8.828C379.586,216.737,383.539,220.69,388.414,220.69z"/>
<path style="fill:#DEE3ED;" d="M291.31,326.621v70.621c0,4.875-3.953,8.828-8.828,8.828h176.552c4.875,0,8.828-3.953,8.828-8.828
	v-70.621c0-4.875-3.953-8.828-8.828-8.828H282.483C287.358,317.793,291.31,321.746,291.31,326.621z"/>
<path style="fill:#91E6BE;" d="M273.655,406.069h8.828c4.875,0,8.828-3.953,8.828-8.828v-70.621c0-4.875-3.953-8.828-8.828-8.828
	h-8.828c-4.875,0-8.828,3.953-8.828,8.828v70.621C264.828,402.116,268.78,406.069,273.655,406.069z"/>
<path style="fill:#FFDC69;" d="M52.966,406.069h10.227v-22.262c0-15.155,11.185-30.653,25.463-35.276l21.117-6.18
	c0,0,0.429-15.23,0.446-16.759c-8.961-8.427-14.607-20.41-14.607-33.731v-4.307c-1.73-4.135-6.51-16.8-6.51-30.621
	c0-16.895,11.671-30.132,26.571-30.132c0.788,0,1.98,0.086,3.368,0.294c10.189-9.806,24.908-6.259,37.964-3.03
	c8.041,1.987,16.364,4.046,20.938,2.146c2.636-1.092,5.685-0.323,7.505,1.886c5.425,6.594,13.382,31.454,1.378,54.306v4.019
	c0.021,0.352,0.035,0.687,0,1.038v4.401c0,13.334-5.658,25.329-14.635,33.756c0.031,1.566,0.45,16.715,0.45,16.715l20.993,6.142
	c14.456,4.681,25.641,20.179,25.641,35.333v22.263h10.244c4.875,0,8.828-3.953,8.828-8.828V203.034c0-4.875-3.953-8.828-8.828-8.828
	H52.966c-4.875,0-8.828,3.953-8.828,8.828v194.207C44.138,402.116,48.09,406.069,52.966,406.069z"/>
<path style="fill:#FF6469;" d="M193.632,348.473l-20.993-6.142c0,0-0.419-15.149-0.45-16.715
	c8.977-8.428,14.635-20.422,14.635-33.756v-4.401c0.035-0.351,0.021-0.686,0-1.038v-4.019c12.003-22.851,4.046-47.712-1.378-54.306
	c-1.82-2.21-4.868-2.979-7.505-1.886c-4.573,1.899-12.897-0.159-20.938-2.146c-13.056-3.229-27.775-6.776-37.964,3.03
	c-1.388-0.207-2.58-0.294-3.368-0.294c-14.901,0-26.571,13.237-26.571,30.132c0,13.821,4.779,26.486,6.51,30.621v4.307
	c0,13.321,5.646,25.304,14.607,33.731c-0.017,1.529-0.446,16.759-0.446,16.759l-21.117,6.18
	c-14.279,4.623-25.463,20.121-25.463,35.276v22.261h156.082v-22.262C219.274,368.652,208.088,353.154,193.632,348.473z"/>
<g>
</g>
<g>
</g>
<g>
</g>
<g>
</g>
<g>
</g>
<g>
</g>
<g>
</g>
<g>
</g>
<g>
</g>
<g>
</g>
<g>
</g>
<g>
</g>
<g>
</g>
<g>
</g>
<g>
</g>
</svg>
