<?xml version="1.0" encoding="iso-8859-1"?>
<!-- Generator: Adobe Illustrator 18.0.0, SVG Export Plug-In . SVG Version: 6.00 Build 0)  -->
<!DOCTYPE svg PUBLIC "-//W3C//DTD SVG 1.1//EN" "http://www.w3.org/Graphics/SVG/1.1/DTD/svg11.dtd">
<svg version="1.1" id="Capa_1" xmlns="http://www.w3.org/2000/svg" xmlns:xlink="http://www.w3.org/1999/xlink" x="0px" y="0px"
	 viewBox="0 0 410.551 410.551" style="enable-background:new 0 0 410.551 410.551;" xml:space="preserve">
<g>
	<g>
		<path style="fill:none;" d="M205.275,24C105.319,24,24,105.32,24,205.275c0,99.956,81.319,181.275,181.275,181.275
			s181.276-81.319,181.276-181.275C386.551,105.32,305.232,24,205.275,24z M202.078,51.41c24.558,0,44.537,19.98,44.537,44.539
			c0,24.558-19.979,44.538-44.537,44.538c-24.559,0-44.538-19.98-44.538-44.538C157.54,71.391,177.52,51.41,202.078,51.41z
			 M288.501,347.142c0,6.628-5.373,12-12,12H140.559c-6.627,0-12-5.372-12-12v-45.554c0-6.627,5.373-12,12-12h23.141v-76.426H134.05
			c-6.627,0-12-5.372-12-12v-37.535c0-6.627,5.373-12,12-12h106.726c6.627,0,12,5.373,12,12v125.961h23.726c6.627,0,12,5.373,12,12
			V347.142z"/>
		<path style="fill:#73D0F4;" d="M202.078,116.487c11.324,0,20.537-9.213,20.537-20.538c0-11.325-9.213-20.539-20.537-20.539
			c-11.325,0-20.538,9.214-20.538,20.539C181.54,107.273,190.753,116.487,202.078,116.487z"/>
		<path style="fill:#73D0F4;" d="M228.775,301.588V175.627H146.05v13.535h29.649c6.627,0,12,5.373,12,12v100.426
			c0,6.628-5.373,12-12,12h-23.141v21.554h111.942v-21.554h-23.726C234.148,313.588,228.775,308.216,228.775,301.588z"/>
		<path style="fill:#3D6889;" d="M205.275,0C92.086,0,0,92.086,0,205.275c0,113.19,92.086,205.275,205.275,205.275
			s205.276-92.086,205.276-205.275C410.551,92.086,318.465,0,205.275,0z M205.275,386.551C105.319,386.551,24,305.232,24,205.275
			C24,105.32,105.319,24,205.275,24s181.276,81.32,181.276,181.275C386.551,305.232,305.232,386.551,205.275,386.551z"/>
		<path style="fill:#3D6889;" d="M202.078,140.487c24.558,0,44.537-19.98,44.537-44.538c0-24.559-19.979-44.539-44.537-44.539
			c-24.559,0-44.538,19.98-44.538,44.539C157.54,120.507,177.52,140.487,202.078,140.487z M202.078,75.41
			c11.324,0,20.537,9.214,20.537,20.539c0,11.324-9.213,20.538-20.537,20.538c-11.325,0-20.538-9.213-20.538-20.538
			C181.54,84.624,190.753,75.41,202.078,75.41z"/>
		<path style="fill:#3D6889;" d="M276.501,289.588h-23.726V163.627c0-6.627-5.373-12-12-12H134.05c-6.627,0-12,5.373-12,12v37.535
			c0,6.628,5.373,12,12,12h29.649v76.426h-23.141c-6.627,0-12,5.373-12,12v45.554c0,6.628,5.373,12,12,12h135.942
			c6.627,0,12-5.372,12-12v-45.554C288.501,294.961,283.128,289.588,276.501,289.588z M264.501,335.142H152.559v-21.554h23.141
			c6.627,0,12-5.372,12-12V201.162c0-6.627-5.373-12-12-12H146.05v-13.535h82.726v125.961c0,6.628,5.373,12,12,12h23.726V335.142z"
			/>
	</g>
</g>
<g>
</g>
<g>
</g>
<g>
</g>
<g>
</g>
<g>
</g>
<g>
</g>
<g>
</g>
<g>
</g>
<g>
</g>
<g>
</g>
<g>
</g>
<g>
</g>
<g>
</g>
<g>
</g>
<g>
</g>
</svg>
